<svg width="40" height="40" fill="none" xmlns="http://www.w3.org/2000/svg"><path clip-rule="evenodd" d="M35.074 27.274V7.855H7.926v19.419a1.94 1.94 0 0 0 1.94 1.94h23.27a1.939 1.939 0 0 0 1.938-1.94Z" stroke="#4F4F4F" stroke-width="1.6" stroke-linejoin="bevel"/><path fill-rule="evenodd" clip-rule="evenodd" d="m12.638 36.396 4.289-7.58 1.39.793-3.88 6.787h-1.8ZM30.386 36.396l-4.313-7.58-1.389.793 3.878 6.787h1.824Z" fill="#4F4F4F"/><path d="M4.048 7.883h34.904" stroke="#4F4F4F" stroke-width="1.6" stroke-linejoin="bevel"/><path clip-rule="evenodd" d="M32.074 24.275V4.856H4.926v19.419a1.94 1.94 0 0 0 1.939 1.94h23.27a1.94 1.94 0 0 0 1.939-1.94Z" stroke="#fff" stroke-width="1.6" stroke-linejoin="bevel"/><path fill-rule="evenodd" clip-rule="evenodd" d="m9.477 33.397 4.45-7.58 1.389.793-3.878 6.787H9.477ZM27.359 33.397l-4.286-7.58-1.39.793 3.879 6.787h1.797Z" fill="#fff"/><path d="M1.047 4.884h34.905" stroke="#fff" stroke-width="1.6" stroke-linejoin="bevel"/></svg>