<svg width="40" height="40" fill="none" xmlns="http://www.w3.org/2000/svg"><path d="M21.5 4.833v33.333m0-33.333s-3.919 2.579-6.667 3.75c-2.51 1.07-6.667 2.083-6.667 2.083v10c0 6.25 4.167 12.917 13.334 17.5m0-33.333s3.919 2.579 6.666 3.75c2.51 1.07 6.667 2.083 6.667 2.083v10c0 6.25-4.166 12.917-13.333 17.5" stroke="#4F4F4F" stroke-width="1.4"/><path d="M18.5 1.833v33.333m0-33.333s-3.919 2.579-6.667 3.75c-2.51 1.07-6.667 2.083-6.667 2.083v10c0 6.25 4.167 12.917 13.334 17.5m0-33.333s3.919 2.579 6.666 3.75c2.51 1.07 6.667 2.083 6.667 2.083v10c0 6.25-4.166 12.917-13.333 17.5" stroke="#fff" stroke-width="1.6"/></svg>