<svg width="40" height="40" fill="none" xmlns="http://www.w3.org/2000/svg"><path d="M9 32.5h3v-10H9V19c0-6.075 4.925-11 11-11h4c6.075 0 11 4.925 11 11v3.5h-3.5v10c0 1.5-1.5 3-3 3H24v-2h-4v4h8.5c2.5 0 5-2.5 5-5H35c1.5 0 3-1.5 3-3V19c0-7.732-6.268-14-14-14h-4C12.268 5 6 11.268 6 19v10.5c0 1.6 1.5 3 3 3Z" stroke="#4F4F4F" stroke-width="1.4"/><path d="M7 30.5h3v-10H7V17c0-6.075 4.925-11 11-11h4c6.075 0 11 4.925 11 11v3.5h-3.5v10c0 1.5-1.5 3-3 3H22v-2h-4v4h8.5c2.5 0 5-2.5 5-5H33c1.5 0 3-1.5 3-3V17c0-7.732-6.268-14-14-14h-4C10.268 3 4 9.268 4 17v10.5c0 1.6 1.5 3 3 3Z" stroke="#fff" stroke-width="1.4"/></svg>