<svg width="40" height="40" fill="none" xmlns="http://www.w3.org/2000/svg"><path fill-rule="evenodd" clip-rule="evenodd" d="M21.907 26.741a8.185 8.185 0 0 0-5.787 2.397l-1.25-1.251a9.955 9.955 0 0 1 14.075 0l-1.251 1.251a8.185 8.185 0 0 0-5.787-2.397ZM21.907 33.376a1.548 1.548 0 0 0-1.095.453l-1.252-1.25a3.318 3.318 0 0 1 4.692 0l-1.25 1.25a1.55 1.55 0 0 0-1.095-.453ZM21.907 18.999a15.925 15.925 0 0 0-11.26 4.664l-1.252-1.251a17.694 17.694 0 0 1 25.023 0l-1.25 1.251A15.925 15.925 0 0 0 21.906 19Z" fill="#4F4F4F"/><path fill-rule="evenodd" clip-rule="evenodd" d="M21.76 11.262a23.112 23.112 0 0 0-16.696 6.712L3.817 16.72a24.882 24.882 0 0 1 35.683.628l-1.29 1.21a23.11 23.11 0 0 0-16.45-7.295Z" fill="#4F4F4F"/><path fill-rule="evenodd" clip-rule="evenodd" d="M18.59 23.423a8.182 8.182 0 0 0-5.788 2.397l-1.25-1.252a9.954 9.954 0 0 1 14.075 0l-1.251 1.252a8.182 8.182 0 0 0-5.787-2.397ZM18.59 30.058a1.549 1.549 0 0 0-1.096.454l-1.25-1.251a3.316 3.316 0 0 1 4.691 0l-1.251 1.25a1.55 1.55 0 0 0-1.095-.453ZM18.59 15.681a15.924 15.924 0 0 0-11.261 4.665l-1.251-1.251a17.695 17.695 0 0 1 25.023 0l-1.251 1.25a15.925 15.925 0 0 0-11.26-4.663Z" fill="#fff"/><path fill-rule="evenodd" clip-rule="evenodd" d="M18.443 7.944a23.113 23.113 0 0 0-16.696 6.712L.5 13.401a24.882 24.882 0 0 1 35.682.627l-1.29 1.21a23.114 23.114 0 0 0-16.45-7.294Z" fill="#fff"/></svg>