<svg width="44" height="54" viewBox="0 0 44 54" fill="none" xmlns="http://www.w3.org/2000/svg">
<path d="M9.52 21.36C8.96 21.5733 8.08 21.8267 6.88 22.12C5.68 22.4133 4.70667 22.6133 3.96 22.72L3.56 20.48C4.92 20.1867 6.30667 19.6933 7.72 19C9.16 18.3067 10.36 17.5467 11.32 16.72H11.36L13.8 17.12V39.68L18.76 40.04V42H4.36V40.04L9.52 39.68V21.36ZM21.4972 40.32C23.9505 38.9333 26.2039 37.3467 28.2572 35.56C30.3105 33.7467 31.9372 31.88 33.1372 29.96C34.3639 28.04 34.9772 26.2267 34.9772 24.52C34.9772 23.0533 34.5372 21.8933 33.6572 21.04C32.7772 20.16 31.5239 19.72 29.8972 19.72C28.3772 19.72 27.0705 20.0267 25.9772 20.64C24.8839 21.2267 23.8705 21.96 22.9372 22.84L21.6572 21.04C22.5905 19.9467 23.9239 18.96 25.6572 18.08C27.3905 17.1733 29.2439 16.72 31.2172 16.72C33.0839 16.72 34.6572 17.0667 35.9372 17.76C37.2172 18.4267 38.1639 19.3067 38.7772 20.4C39.3905 21.4933 39.6972 22.6933 39.6972 24C39.6972 26.64 38.4305 29.36 35.8972 32.16C33.3639 34.9333 30.1905 37.4267 26.3772 39.64L38.7772 38.72L40.1772 35.28L42.2172 35.68L41.1772 42H22.0972L21.4972 40.32Z" fill="#F2F2F2"/>
<path d="M7.52 19.36H8.52V17.9089L7.164 18.4255L7.52 19.36ZM4.88 20.12L5.11745 21.0914H5.11745L4.88 20.12ZM1.96 20.72L0.975573 20.8958L1.14535 21.8465L2.10142 21.7099L1.96 20.72ZM1.56 18.48L1.34916 17.5025L0.405952 17.7059L0.575572 18.6558L1.56 18.48ZM5.72 17L5.28617 16.099L5.27957 16.1022L5.72 17ZM9.32 14.72V13.72H8.94878L8.66748 13.9622L9.32 14.72ZM9.36 14.72L9.52178 13.7332L9.44142 13.72H9.36V14.72ZM11.8 15.12H12.8V14.2706L11.9618 14.1332L11.8 15.12ZM11.8 37.68H10.8V38.6101L11.7276 38.6774L11.8 37.68ZM16.76 38.04H17.76V37.11L16.8324 37.0426L16.76 38.04ZM16.76 40V41H17.76V40H16.76ZM2.36 40H1.36V41H2.36V40ZM2.36 38.04L2.2904 37.0424L1.36 37.1073V38.04H2.36ZM7.52 37.68L7.5896 38.6776L8.52 38.6127V37.68H7.52ZM7.164 18.4255C6.66497 18.6156 5.83513 18.8571 4.64255 19.1486L5.11745 21.0914C6.32487 20.7963 7.25503 20.531 7.876 20.2945L7.164 18.4255ZM4.64255 19.1486C3.45703 19.4384 2.5192 19.63 1.81858 19.73L2.10142 21.7099C2.89414 21.5967 3.90297 21.3883 5.11745 21.0914L4.64255 19.1486ZM2.94443 20.5442L2.54443 18.3042L0.575572 18.6558L0.975573 20.8958L2.94443 20.5442ZM1.77084 19.4575C3.21994 19.145 4.68348 18.6223 6.16043 17.8978L5.27957 16.1022C3.92985 16.7643 2.62006 17.2284 1.34916 17.5025L1.77084 19.4575ZM6.15382 17.901C7.65313 17.1791 8.93156 16.3741 9.97252 15.4778L8.66748 13.9622C7.78844 14.7192 6.66687 15.4342 5.28619 16.099L6.15382 17.901ZM9.32 15.72H9.36V13.72H9.32V15.72ZM9.19823 15.7068L11.6382 16.1068L11.9618 14.1332L9.52178 13.7332L9.19823 15.7068ZM10.8 15.12V37.68H12.8V15.12H10.8ZM11.7276 38.6774L16.6876 39.0374L16.8324 37.0426L11.8724 36.6826L11.7276 38.6774ZM15.76 38.04V40H17.76V38.04H15.76ZM16.76 39H2.36V41H16.76V39ZM3.36 40V38.04H1.36V40H3.36ZM2.4296 39.0376L7.5896 38.6776L7.4504 36.6824L2.2904 37.0424L2.4296 39.0376ZM8.52 37.68V19.36H6.52V37.68H8.52ZM19.4972 38.32L19.0051 37.4494L18.2723 37.8636L18.5554 38.6563L19.4972 38.32ZM26.2572 33.56L26.9136 34.3144L26.9191 34.3096L26.2572 33.56ZM31.1372 27.96L30.2945 27.4216L30.2892 27.43L31.1372 27.96ZM31.6572 19.04L30.9501 19.7471L30.9555 19.7525L30.961 19.7579L31.6572 19.04ZM23.9772 18.64L24.45 19.5212L24.4583 19.5167L24.4664 19.5121L23.9772 18.64ZM20.9372 20.84L20.1222 21.4195L20.7877 22.3553L21.6232 21.5676L20.9372 20.84ZM19.6572 19.04L18.8966 18.3907L18.3902 18.9839L18.8422 19.6195L19.6572 19.04ZM23.6572 16.08L24.1099 16.9717L24.1207 16.9661L23.6572 16.08ZM33.9372 15.76L33.4609 16.6393L33.468 16.6432L33.4753 16.6469L33.9372 15.76ZM33.8972 30.16L34.6355 30.8344L34.6387 30.8309L33.8972 30.16ZM24.3772 37.64L23.8752 36.7751L24.4512 38.6373L24.3772 37.64ZM36.7772 36.72L36.8512 37.7173L37.4696 37.6714L37.7034 37.097L36.7772 36.72ZM38.1772 33.28L38.3696 32.2987L37.5614 32.1402L37.251 32.903L38.1772 33.28ZM40.2172 33.68L41.2039 33.8424L41.3614 32.8853L40.4096 32.6987L40.2172 33.68ZM39.1772 40V41H40.0261L40.1639 40.1624L39.1772 40ZM20.0972 40L19.1554 40.3363L19.3925 41H20.0972V40ZM19.9892 39.1906C22.4991 37.772 24.8078 36.1467 26.9136 34.3144L25.6008 32.8056C23.5999 34.5466 21.402 36.0947 19.0051 37.4494L19.9892 39.1906ZM26.9191 34.3096C29.0301 32.4453 30.7247 30.5068 31.9852 28.49L30.2892 27.43C29.1497 29.2532 27.5909 31.048 25.5952 32.8104L26.9191 34.3096ZM31.9799 28.4984C33.2757 26.4701 33.9772 24.4715 33.9772 22.52H31.9772C31.9772 23.9819 31.452 25.6099 30.2945 27.4216L31.9799 28.4984ZM33.9772 22.52C33.9772 20.84 33.4651 19.4002 32.3533 18.3221L30.961 19.7579C31.6092 20.3865 31.9772 21.2667 31.9772 22.52H33.9772ZM32.3643 18.3329C31.2443 17.2129 29.7043 16.72 27.8972 16.72V18.72C29.3434 18.72 30.3101 19.1071 30.9501 19.7471L32.3643 18.3329ZM27.8972 16.72C26.2421 16.72 24.7594 17.0546 23.4879 17.7679L24.4664 19.5121C25.3816 18.9987 26.5123 18.72 27.8972 18.72V16.72ZM23.5044 17.7588C22.3309 18.3885 21.2463 19.1741 20.2512 20.1124L21.6232 21.5676C22.4947 20.7459 23.4368 20.0648 24.45 19.5212L23.5044 17.7588ZM21.7521 20.2605L20.4721 18.4605L18.8422 19.6195L20.1222 21.4195L21.7521 20.2605ZM20.4178 19.6893C21.241 18.7249 22.4552 17.8117 24.1099 16.9717L23.2045 15.1883C21.3925 16.1083 19.94 17.1685 18.8966 18.3907L20.4178 19.6893ZM24.1207 16.9661C25.7097 16.1349 27.4038 15.72 29.2172 15.72V13.72C27.0839 13.72 25.0714 14.2117 23.1937 15.1939L24.1207 16.9661ZM29.2172 15.72C30.9633 15.72 32.3627 16.0444 33.4609 16.6393L34.4135 14.8807C32.9517 14.0889 31.2044 13.72 29.2172 13.72V15.72ZM33.4753 16.6469C34.6095 17.2377 35.4006 17.9901 35.905 18.8892L37.6493 17.9107C36.9271 16.6233 35.8249 15.6157 34.3991 14.8731L33.4753 16.6469ZM35.905 18.8892C36.4309 19.8267 36.6972 20.8571 36.6972 22H38.6972C38.6972 20.5295 38.3501 19.16 37.6493 17.9107L35.905 18.8892ZM36.6972 22C36.6972 24.3034 35.5936 26.7945 33.1557 29.4891L34.6387 30.8309C37.2674 27.9255 38.6972 24.9766 38.6972 22H36.6972ZM33.1589 29.4856C30.7049 32.172 27.6154 34.6042 23.8752 36.7751L24.8792 38.5049C28.7656 36.2491 32.0228 33.6946 34.6355 30.8344L33.1589 29.4856ZM24.4512 38.6373L36.8512 37.7173L36.7032 35.7227L24.3032 36.6427L24.4512 38.6373ZM37.7034 37.097L39.1034 33.657L37.251 32.903L35.851 36.343L37.7034 37.097ZM37.9848 34.2613L40.0248 34.6613L40.4096 32.6987L38.3696 32.2987L37.9848 34.2613ZM39.2305 33.5176L38.1905 39.8376L40.1639 40.1624L41.2039 33.8424L39.2305 33.5176ZM39.1772 39H20.0972V41H39.1772V39ZM21.0389 39.6637L20.4389 37.9837L18.5554 38.6563L19.1554 40.3363L21.0389 39.6637Z" fill="#BDBDBD"/>
</svg>
