<svg width="71" height="54" viewBox="0 0 71 54" fill="none" xmlns="http://www.w3.org/2000/svg">
<path d="M9.52 21.36C8.96 21.5733 8.08 21.8267 6.88 22.12C5.68 22.4133 4.70667 22.6133 3.96 22.72L3.56 20.48C4.92 20.1867 6.30667 19.6933 7.72 19C9.16 18.3067 10.36 17.5467 11.32 16.72H11.36L13.8 17.12V39.68L18.76 40.04V42H4.36V40.04L9.52 39.68V21.36ZM32.2972 42.36C28.8839 42.36 26.3239 41.1867 24.6172 38.84C22.9372 36.4667 22.0972 33.4133 22.0972 29.68C22.0972 27.0667 22.5772 24.7867 23.5372 22.84C24.4972 20.8667 25.8039 19.36 27.4572 18.32C29.1105 17.28 30.9239 16.76 32.8972 16.76C36.3639 16.76 38.8972 17.88 40.4972 20.12C42.0972 22.3333 42.8972 25.3733 42.8972 29.24C42.8972 31.8267 42.4305 34.12 41.4972 36.12C40.5905 38.0933 39.3239 39.6267 37.6972 40.72C36.0972 41.8133 34.2972 42.36 32.2972 42.36ZM32.4572 40.32C36.4305 40.32 38.4172 36.76 38.4172 29.64C38.4172 26.1733 37.9639 23.5067 37.0572 21.64C36.1772 19.7733 34.6839 18.84 32.5772 18.84C30.5239 18.84 29.0039 19.7333 28.0172 21.52C27.0305 23.28 26.5372 25.8133 26.5372 29.12C26.5372 32.5067 27.0039 35.2267 27.9372 37.28C28.8972 39.3067 30.4039 40.32 32.4572 40.32ZM47.9203 34.68C47.9203 33.1067 48.427 31.6533 49.4403 30.32C50.4803 28.96 52.027 27.8267 54.0803 26.92C52.507 25.9067 51.2936 24.84 50.4403 23.72C49.587 22.5733 49.1603 21.1467 49.1603 19.44C49.1603 17.8667 49.5736 16.52 50.4003 15.4C51.2536 14.2533 52.3736 13.3867 53.7603 12.8C55.147 12.2133 56.6403 11.92 58.2403 11.92C60.827 11.92 62.907 12.52 64.4803 13.72C66.0536 14.92 66.8403 16.52 66.8403 18.52C66.8403 20.04 66.3736 21.4533 65.4403 22.76C64.5336 24.04 63.2136 25.16 61.4803 26.12C63.6136 27.32 65.267 28.5333 66.4403 29.76C67.6136 30.9867 68.2003 32.5067 68.2003 34.32C68.2003 35.9467 67.7203 37.3733 66.7603 38.6C65.827 39.8 64.5736 40.7333 63.0003 41.4C61.427 42.0667 59.7203 42.4 57.8803 42.4C56.1736 42.4 54.5603 42.1333 53.0403 41.6C51.547 41.0667 50.3203 40.2267 49.3603 39.08C48.4003 37.9067 47.9203 36.44 47.9203 34.68ZM52.8403 18.52C52.8403 19.48 53.1336 20.3333 53.7203 21.08C54.307 21.8267 55.027 22.4667 55.8803 23C56.7336 23.5333 57.9603 24.2267 59.5603 25.08C60.7603 24.44 61.707 23.6267 62.4003 22.64C63.0936 21.6533 63.4403 20.5867 63.4403 19.44C63.4403 17.68 62.9603 16.3067 62.0003 15.32C61.0403 14.3067 59.747 13.8 58.1203 13.8C56.6536 13.8 55.4003 14.2267 54.3603 15.08C53.347 15.9333 52.8403 17.08 52.8403 18.52ZM63.9603 35.16C63.9603 34.2 63.6803 33.36 63.1203 32.64C62.5603 31.8933 61.8536 31.2533 61.0003 30.72C60.1736 30.1867 59.027 29.5467 57.5603 28.8C56.8136 28.4267 56.2536 28.1333 55.8803 27.92C54.627 28.56 53.6136 29.4133 52.8403 30.48C52.067 31.5467 51.6803 32.6933 51.6803 33.92C51.6803 35.8933 52.2536 37.4667 53.4003 38.64C54.5736 39.7867 56.1603 40.36 58.1603 40.36C59.1203 40.36 60.0403 40.1467 60.9203 39.72C61.827 39.2933 62.5603 38.68 63.1203 37.88C63.6803 37.08 63.9603 36.1733 63.9603 35.16Z" fill="#F2F2F2"/>
<path d="M7.52 19.36H8.52V17.9089L7.164 18.4255L7.52 19.36ZM4.88 20.12L5.11745 21.0914H5.11745L4.88 20.12ZM1.96 20.72L0.975573 20.8958L1.14535 21.8465L2.10142 21.7099L1.96 20.72ZM1.56 18.48L1.34916 17.5025L0.405952 17.7059L0.575572 18.6558L1.56 18.48ZM5.72 17L5.28617 16.099L5.27957 16.1022L5.72 17ZM9.32 14.72V13.72H8.94878L8.66748 13.9622L9.32 14.72ZM9.36 14.72L9.52178 13.7332L9.44142 13.72H9.36V14.72ZM11.8 15.12H12.8V14.2706L11.9618 14.1332L11.8 15.12ZM11.8 37.68H10.8V38.6101L11.7276 38.6774L11.8 37.68ZM16.76 38.04H17.76V37.11L16.8324 37.0426L16.76 38.04ZM16.76 40V41H17.76V40H16.76ZM2.36 40H1.36V41H2.36V40ZM2.36 38.04L2.2904 37.0424L1.36 37.1073V38.04H2.36ZM7.52 37.68L7.5896 38.6776L8.52 38.6127V37.68H7.52ZM7.164 18.4255C6.66497 18.6156 5.83513 18.8571 4.64255 19.1486L5.11745 21.0914C6.32487 20.7963 7.25503 20.531 7.876 20.2945L7.164 18.4255ZM4.64255 19.1486C3.45703 19.4384 2.5192 19.63 1.81858 19.73L2.10142 21.7099C2.89414 21.5967 3.90297 21.3883 5.11745 21.0914L4.64255 19.1486ZM2.94443 20.5442L2.54443 18.3042L0.575572 18.6558L0.975573 20.8958L2.94443 20.5442ZM1.77084 19.4575C3.21994 19.145 4.68348 18.6223 6.16043 17.8978L5.27957 16.1022C3.92985 16.7643 2.62006 17.2284 1.34916 17.5025L1.77084 19.4575ZM6.15382 17.901C7.65313 17.1791 8.93156 16.3741 9.97252 15.4778L8.66748 13.9622C7.78844 14.7192 6.66687 15.4342 5.28619 16.099L6.15382 17.901ZM9.32 15.72H9.36V13.72H9.32V15.72ZM9.19823 15.7068L11.6382 16.1068L11.9618 14.1332L9.52178 13.7332L9.19823 15.7068ZM10.8 15.12V37.68H12.8V15.12H10.8ZM11.7276 38.6774L16.6876 39.0374L16.8324 37.0426L11.8724 36.6826L11.7276 38.6774ZM15.76 38.04V40H17.76V38.04H15.76ZM16.76 39H2.36V41H16.76V39ZM3.36 40V38.04H1.36V40H3.36ZM2.4296 39.0376L7.5896 38.6776L7.4504 36.6824L2.2904 37.0424L2.4296 39.0376ZM8.52 37.68V19.36H6.52V37.68H8.52ZM22.6172 36.84L21.8009 37.4178L21.8085 37.4282L22.6172 36.84ZM21.5372 20.84L22.4341 21.2823L22.4364 21.2775L21.5372 20.84ZM25.4572 16.32L25.9896 17.1665L25.4572 16.32ZM38.4972 18.12L37.6834 18.7012L37.6868 18.7058L38.4972 18.12ZM39.4972 34.12L38.591 33.6971L38.5885 33.7025L39.4972 34.12ZM35.6972 38.72L35.1393 37.89L35.133 37.8944L35.6972 38.72ZM35.0572 19.64L34.1526 20.0664L34.1577 20.0769L35.0572 19.64ZM26.0172 19.52L26.8895 20.009L26.8926 20.0034L26.0172 19.52ZM25.9372 35.28L25.0268 35.6938L25.0301 35.701L25.0334 35.7081L25.9372 35.28ZM30.2972 39.36C27.1396 39.36 24.9096 38.2919 23.4259 36.2518L21.8085 37.4282C23.7381 40.0814 26.6281 41.36 30.2972 41.36V39.36ZM23.4334 36.2622C21.9029 34.1002 21.0972 31.2651 21.0972 27.68H19.0972C19.0972 31.5616 19.9714 34.8332 21.801 37.4178L23.4334 36.2622ZM21.0972 27.68C21.0972 25.1891 21.5544 23.0661 22.4341 21.2823L20.6403 20.3977C19.6 22.5072 19.0972 24.9442 19.0972 27.68H21.0972ZM22.4364 21.2775C23.3251 19.4507 24.5133 18.0951 25.9896 17.1665L24.9247 15.4735C23.0944 16.6249 21.6693 18.2826 20.638 20.4025L22.4364 21.2775ZM25.9896 17.1665C27.4818 16.2279 29.1102 15.76 30.8972 15.76V13.76C28.7375 13.76 26.7393 14.3321 24.9247 15.4735L25.9896 17.1665ZM30.8972 15.76C34.1344 15.76 36.3196 16.7919 37.6835 18.7012L39.3109 17.5388C37.4748 14.9681 34.5933 13.76 30.8972 13.76V15.76ZM37.6868 18.7058C39.1218 20.691 39.8972 23.4991 39.8972 27.24H41.8972C41.8972 23.2476 41.0726 19.9757 39.3076 17.5342L37.6868 18.7058ZM39.8972 27.24C39.8972 29.7055 39.4528 31.8504 38.591 33.6971L40.4034 34.5429C41.4082 32.3896 41.8972 29.9478 41.8972 27.24H39.8972ZM38.5885 33.7025C37.7501 35.5273 36.5972 36.9102 35.1394 37.89L36.255 39.5499C38.0505 38.3432 39.431 36.6594 40.4059 34.5375L38.5885 33.7025ZM35.133 37.8944C33.7048 38.8703 32.1027 39.36 30.2972 39.36V41.36C32.4917 41.36 34.4896 40.7564 36.2614 39.5456L35.133 37.8944ZM30.4572 39.32C31.6045 39.32 32.6561 39.0614 33.5775 38.511C34.4976 37.9614 35.2333 37.1536 35.8004 36.1373C36.9178 34.135 37.4172 31.2602 37.4172 27.64H35.4172C35.4172 31.1398 34.9232 33.605 34.054 35.1627C33.6278 35.9264 33.1218 36.4536 32.5519 36.794C31.9833 37.1336 31.2966 37.32 30.4572 37.32V39.32ZM37.4172 27.64C37.4172 24.1107 36.9596 21.268 35.9567 19.2031L34.1577 20.0769C34.9681 21.7454 35.4172 24.2359 35.4172 27.64H37.4172ZM35.9617 19.2136C35.4542 18.1371 34.7429 17.2768 33.8072 16.692C32.8728 16.108 31.7808 15.84 30.5772 15.84V17.84C31.4802 17.84 32.1882 18.0387 32.7472 18.388C33.3048 18.7365 33.7802 19.2762 34.1527 20.0664L35.9617 19.2136ZM30.5772 15.84C29.402 15.84 28.3278 16.097 27.3905 16.6479C26.4529 17.1989 25.708 18.0113 25.1418 19.0366L26.8926 20.0034C27.3131 19.242 27.8215 18.7144 28.4039 18.3721C28.9866 18.0297 29.699 17.84 30.5772 17.84V15.84ZM25.1449 19.031C24.0371 21.0071 23.5372 23.7396 23.5372 27.12H25.5372C25.5372 23.8871 26.0239 21.5529 26.8895 20.009L25.1449 19.031ZM23.5372 27.12C23.5372 30.5843 24.0124 33.462 25.0268 35.6938L26.8476 34.8662C25.9953 32.9913 25.5372 30.429 25.5372 27.12H23.5372ZM25.0334 35.7081C25.5724 36.846 26.2951 37.7616 27.2291 38.3898C28.1684 39.0215 29.2586 39.32 30.4572 39.32V37.32C29.6024 37.32 28.9126 37.1118 28.3453 36.7302C27.7726 36.345 27.2619 35.7407 26.8409 34.8519L25.0334 35.7081ZM47.4403 28.32L46.646 27.7125L46.6441 27.7149L47.4403 28.32ZM52.0803 24.92L52.4842 25.8348L54.1829 25.0847L52.6218 24.0793L52.0803 24.92ZM48.4403 21.72L47.638 22.317L47.6449 22.326L48.4403 21.72ZM48.4003 13.4L47.5981 12.803L47.5957 12.8061L48.4003 13.4ZM62.4803 11.72L61.8739 12.5151L62.4803 11.72ZM63.4403 20.76L62.6266 20.1788L62.6243 20.182L63.4403 20.76ZM59.4803 24.12L58.9958 23.2452L57.4286 24.1132L58.9901 24.9916L59.4803 24.12ZM64.4403 27.76L63.7177 28.4512L64.4403 27.76ZM64.7603 36.6L63.9728 35.9837L63.971 35.9861L64.7603 36.6ZM61.0003 39.4L61.3905 40.3208L61.0003 39.4ZM51.0403 39.6L50.704 40.5418L50.7092 40.5436L51.0403 39.6ZM47.3603 37.08L46.5863 37.7133L46.5936 37.7219L47.3603 37.08ZM51.7203 19.08L50.934 19.6978V19.6978L51.7203 19.08ZM53.8803 21L53.3503 21.848H53.3503L53.8803 21ZM57.5603 23.08L57.0897 23.9624L57.5603 24.2133L58.0309 23.9624L57.5603 23.08ZM60.0003 13.32L59.2743 14.0078L59.2836 14.0174L60.0003 13.32ZM52.3603 13.08L51.7259 12.3069L51.7162 12.3151L52.3603 13.08ZM61.1203 30.64L60.3203 31.24L60.3256 31.247L60.331 31.2539L61.1203 30.64ZM59.0003 28.72L58.4582 29.5603L58.4642 29.5642L58.4703 29.568L59.0003 28.72ZM55.5603 26.8L56.014 25.9088L56.0075 25.9056L55.5603 26.8ZM53.8803 25.92L54.3764 25.0518L53.907 24.7835L53.4255 25.0294L53.8803 25.92ZM50.8403 28.48L50.0307 27.893L50.8403 28.48ZM51.4003 36.64L50.6851 37.3389L50.6932 37.3472L50.7014 37.3552L51.4003 36.64ZM58.9203 37.72L58.4945 36.8151L58.484 36.8202L58.9203 37.72ZM61.1203 35.88L60.3011 35.3065L61.1203 35.88ZM46.9203 32.68C46.9203 31.3398 47.3463 30.0964 48.2365 28.9251L46.6441 27.7149C45.5077 29.2103 44.9203 30.8736 44.9203 32.68H46.9203ZM48.2347 28.9274C49.1456 27.7363 50.5385 26.694 52.4842 25.8348L51.6764 24.0052C49.5155 24.9594 47.8151 26.1837 46.646 27.7125L48.2347 28.9274ZM52.6218 24.0793C51.1159 23.1094 49.9998 22.1168 49.2357 21.114L47.6449 22.326C48.5875 23.5632 49.8981 24.704 51.5388 25.7607L52.6218 24.0793ZM49.2425 21.123C48.5411 20.1804 48.1603 18.9745 48.1603 17.44H46.1603C46.1603 19.3188 46.6329 20.9663 47.6381 22.317L49.2425 21.123ZM48.1603 17.44C48.1603 16.0513 48.5214 14.9199 49.2049 13.9939L47.5957 12.8061C46.6259 14.1201 46.1603 15.682 46.1603 17.44H48.1603ZM49.2025 13.997C49.9439 13.0009 50.9181 12.2421 52.15 11.721L51.3707 9.87903C49.8292 10.5312 48.5634 11.5058 47.5981 12.803L49.2025 13.997ZM52.15 11.721C53.4057 11.1897 54.7657 10.92 56.2403 10.92V8.92C54.515 8.92 52.8882 9.23699 51.3707 9.87903L52.15 11.721ZM56.2403 10.92C58.6753 10.92 60.5217 11.4838 61.8739 12.5151L63.0868 10.9249C61.2922 9.55618 58.9787 8.92 56.2403 8.92V10.92ZM61.8739 12.5151C63.1961 13.5236 63.8403 14.828 63.8403 16.52H65.8403C65.8403 14.212 64.9112 12.3164 63.0868 10.9249L61.8739 12.5151ZM63.8403 16.52C63.8403 17.8194 63.446 19.0315 62.6266 20.1788L64.254 21.3412C65.3013 19.8751 65.8403 18.2606 65.8403 16.52H63.8403ZM62.6243 20.182C61.8242 21.3115 60.6313 22.3394 58.9958 23.2452L59.9648 24.9948C61.796 23.9806 63.2431 22.7685 64.2563 21.338L62.6243 20.182ZM58.9901 24.9916C61.0719 26.1626 62.6353 27.3196 63.7177 28.4512L65.163 27.0688C63.8987 25.747 62.1554 24.4774 59.9706 23.2484L58.9901 24.9916ZM63.7177 28.4512C64.7001 29.4783 65.2003 30.7449 65.2003 32.32H67.2003C67.2003 30.2685 66.5272 28.4951 65.163 27.0688L63.7177 28.4512ZM65.2003 32.32C65.2003 33.7339 64.7887 34.9412 63.9728 35.9837L65.5478 37.2163C66.6519 35.8055 67.2003 34.1594 67.2003 32.32H65.2003ZM63.971 35.9861C63.1548 37.0354 62.0463 37.8707 60.6102 38.4792L61.3905 40.3208C63.101 39.5959 64.4991 38.5646 65.5497 37.2139L63.971 35.9861ZM60.6102 38.4792C59.1695 39.0897 57.5967 39.4 55.8803 39.4V41.4C57.8439 41.4 59.6845 41.0436 61.3905 40.3208L60.6102 38.4792ZM55.8803 39.4C54.2796 39.4 52.7788 39.1502 51.3714 38.6564L50.7092 40.5436C52.3418 41.1164 54.0676 41.4 55.8803 41.4V39.4ZM51.3766 38.6583C50.0404 38.181 48.9659 37.44 48.1271 36.4381L46.5936 37.7219C47.6748 39.0134 49.0536 39.9523 50.704 40.5417L51.3766 38.6583ZM48.1343 36.4468C47.3434 35.4801 46.9203 34.2482 46.9203 32.68H44.9203C44.9203 34.6318 45.4572 36.3332 46.5864 37.7132L48.1343 36.4468ZM49.8403 16.52C49.8403 17.7014 50.2073 18.7729 50.934 19.6978L52.5066 18.4622C52.06 17.8938 51.8403 17.2586 51.8403 16.52H49.8403ZM50.934 19.6978C51.5963 20.5408 52.4048 21.257 53.3503 21.848L54.4103 20.152C53.6492 19.6763 53.0176 19.1125 52.5066 18.4622L50.934 19.6978ZM53.3503 21.848C54.2326 22.3994 55.4828 23.1053 57.0897 23.9624L58.0309 22.1976C56.4379 21.348 55.2347 20.6673 54.4103 20.152L53.3503 21.848ZM58.0309 23.9624C59.3514 23.2581 60.4241 22.3455 61.2185 21.2149L59.5821 20.0651C58.9899 20.9078 58.1692 21.6219 57.0897 22.1976L58.0309 23.9624ZM61.2185 21.2149C62.0237 20.0691 62.4403 18.8035 62.4403 17.44H60.4403C60.4403 18.3699 60.1636 19.2375 59.5821 20.0651L61.2185 21.2149ZM62.4403 17.44C62.4403 15.4952 61.9054 13.844 60.717 12.6226L59.2836 14.0174C60.0152 14.7693 60.4403 15.8647 60.4403 17.44H62.4403ZM60.7263 12.6323C59.5459 11.3863 57.9721 10.8 56.1203 10.8V12.8C57.5219 12.8 58.5347 13.227 59.2744 14.0077L60.7263 12.6323ZM56.1203 10.8C54.4447 10.8 52.9614 11.2933 51.726 12.3069L52.9946 13.8531C53.8393 13.16 54.8626 12.8 56.1203 12.8V10.8ZM51.7162 12.3151C50.4559 13.3764 49.8403 14.8141 49.8403 16.52H51.8403C51.8403 15.3459 52.2381 14.4903 53.0044 13.8449L51.7162 12.3151ZM62.9603 33.16C62.9603 31.9901 62.6137 30.9312 61.9097 30.0261L60.331 31.2539C60.7469 31.7888 60.9603 32.4099 60.9603 33.16H62.9603ZM61.9203 30.04C61.2808 29.1873 60.4799 28.4655 59.5303 27.872L58.4703 29.568C59.2274 30.0411 59.8399 30.5994 60.3203 31.24L61.9203 30.04ZM59.5424 27.8797C58.6746 27.3198 57.4938 26.6622 56.014 25.9088L55.1066 27.6912C56.5602 28.4312 57.6727 29.0535 58.4582 29.5603L59.5424 27.8797ZM56.0075 25.9056C55.2651 25.5344 54.7251 25.251 54.3764 25.0518L53.3842 26.7882C53.7822 27.0157 54.3622 27.319 55.1131 27.6944L56.0075 25.9056ZM53.4255 25.0294C52.0414 25.7362 50.903 26.6899 50.0307 27.893L51.6499 29.067C52.3243 28.1367 53.2125 27.3838 54.3351 26.8106L53.4255 25.0294ZM50.0307 27.893C49.1433 29.117 48.6803 30.4666 48.6803 31.92H50.6803C50.6803 30.9201 50.9906 29.9763 51.6499 29.067L50.0307 27.893ZM48.6803 31.92C48.6803 34.0981 49.3199 35.9419 50.6851 37.3389L52.1155 35.9411C51.1874 34.9914 50.6803 33.6886 50.6803 31.92H48.6803ZM50.7014 37.3552C52.1009 38.7229 53.9598 39.36 56.1603 39.36V37.36C54.3608 37.36 53.0464 36.8504 52.0992 35.9248L50.7014 37.3552ZM56.1603 39.36C57.2743 39.36 58.3432 39.1111 59.3566 38.6198L58.484 36.8202C57.7374 37.1822 56.9663 37.36 56.1603 37.36V39.36ZM59.3461 38.6248C60.4063 38.1259 61.2768 37.4002 61.9395 36.4535L60.3011 35.3065C59.8438 35.9598 59.2477 36.4607 58.4945 36.8152L59.3461 38.6248ZM61.9395 36.4535C62.6218 35.4788 62.9603 34.3703 62.9603 33.16H60.9603C60.9603 33.9764 60.7388 34.6812 60.3011 35.3065L61.9395 36.4535Z" fill="#BDBDBD"/>
</svg>
