<svg width="386" height="368" viewBox="0 0 386 368" fill="none" xmlns="http://www.w3.org/2000/svg">
<rect width="4" height="324" transform="matrix(1 0 0 -1 0 324)" fill="url(#paint0_linear_2350_67132)"/>
<path d="M-1.74846e-06 328C-1.51885e-06 333.253 1.03463 338.454 3.04482 343.307C5.05501 348.16 8.00139 352.57 11.7157 356.284C15.4301 359.999 19.8396 362.945 24.6927 364.955C29.5457 366.965 34.7471 368 40 368L40 364.016C35.2702 364.016 30.5868 363.085 26.2171 361.275C21.8474 359.465 17.8769 356.812 14.5325 353.468C11.188 350.123 8.53509 346.153 6.7251 341.783C4.9151 337.413 3.9835 332.73 3.9835 328L-1.74846e-06 328Z" fill="#F2F2F2"/>
<rect width="4" height="4" transform="matrix(1 0 0 -1 0 328)" fill="url(#paint1_linear_2350_67132)"/>
<rect width="3.99998" height="346" transform="matrix(-4.37114e-08 1 1 4.37114e-08 40 364)" fill="url(#paint2_linear_2350_67132)"/>
<defs>
<linearGradient id="paint0_linear_2350_67132" x1="0" y1="0" x2="2.94656e-08" y2="323.281" gradientUnits="userSpaceOnUse">
<stop stop-color="#E0E0E0"/>
<stop offset="1" stop-color="white"/>
</linearGradient>
<linearGradient id="paint1_linear_2350_67132" x1="0" y1="0" x2="0" y2="3.99113" gradientUnits="userSpaceOnUse">
<stop stop-color="#F2F2F2"/>
<stop offset="1" stop-color="white"/>
</linearGradient>
<linearGradient id="paint2_linear_2350_67132" x1="0" y1="0" x2="3.36031e-08" y2="345.233" gradientUnits="userSpaceOnUse">
<stop stop-color="#F2F2F2"/>
<stop offset="1" stop-color="white"/>
</linearGradient>
</defs>
</svg>
