<svg width="40" height="40" viewBox="0 0 40 40" fill="none" xmlns="http://www.w3.org/2000/svg">
<rect width="40" height="40" fill="white"/>
<path fill-rule="evenodd" clip-rule="evenodd" d="M17.9826 7.29102V37.399H16.5826V10.079C14.9625 11.6476 12.9002 14.6576 12.9002 18.7637V28.2284H15.5885V29.6284H11.5002V18.7637C11.5002 13.0487 15.061 9.23873 16.8943 8.01654L17.9826 7.29102Z" fill="#E0E0E0"/>
<path fill-rule="evenodd" clip-rule="evenodd" d="M24.7 17.9173V8.59961H26.1V17.9173C26.1 18.4097 26.2467 19.0337 26.535 19.6334C26.8231 20.2326 27.2261 20.7529 27.69 21.0799L26.8834 22.2242C26.1762 21.7257 25.6358 20.9941 25.2733 20.24C24.911 19.4864 24.7 18.6558 24.7 17.9173ZM30.3352 8.59961V19.6114H28.9352V8.59961H30.3352ZM34.5705 8.59961V17.9173C34.5705 19.3469 34.0909 20.5927 33.2008 21.4828C32.4593 22.2243 31.471 22.6809 30.3352 22.8128V37.3996H28.9352V21.4526H29.6352C30.7468 21.4526 31.6186 21.0851 32.2109 20.4929C32.8031 19.9006 33.1705 19.0288 33.1705 17.9173V8.59961H34.5705Z" fill="#E0E0E0"/>
<path fill-rule="evenodd" clip-rule="evenodd" d="M14.6768 3.33203V36.6654H13.1268V6.41869C11.3331 8.15529 9.04998 11.4877 9.04998 16.0337V26.5124H12.0262V28.0623H7.5V16.0337C7.5 9.70655 11.4422 5.48839 13.4719 4.13528L14.6768 3.33203Z" fill="#4F4F4F"/>
<path fill-rule="evenodd" clip-rule="evenodd" d="M22.1138 15.0951V4.7793H23.6637V15.0951C23.6637 15.6403 23.8262 16.3312 24.1454 16.9951C24.4644 17.6585 24.9105 18.2345 25.4242 18.5966L24.5312 19.8635C23.7482 19.3115 23.1499 18.5015 22.7485 17.6667C22.3474 16.8324 22.1138 15.9128 22.1138 15.0951ZM28.3528 4.7793V16.9707H26.8028V4.7793H28.3528ZM33.0418 4.7793V15.0951C33.0418 16.6779 32.5108 18.0572 31.5253 19.0426C30.7044 19.8636 29.6102 20.3691 28.3528 20.515V36.6645H26.8028V19.0091H27.5778C28.8083 19.0091 29.7736 18.6023 30.4293 17.9466C31.085 17.291 31.4918 16.3257 31.4918 15.0951V4.7793H33.0418Z" fill="#4F4F4F"/>
</svg>
