<svg width="40" height="40" viewBox="0 0 40 40" fill="none" xmlns="http://www.w3.org/2000/svg">
<path fill-rule="evenodd" clip-rule="evenodd" d="M5.30005 8.00078C5.30005 7.0619 6.06116 6.30078 7.00005 6.30078H26C26.9389 6.30078 27.7001 7.0619 27.7001 8.00078V28.6008H26.3V13.1008H6.70005V33.0008C6.70005 33.1665 6.83436 33.3008 7.00005 33.3008H24.375V34.7008H7.00005C6.06117 34.7008 5.30005 33.9397 5.30005 33.0008V8.00078ZM6.70005 11.7008H26.3V8.00078C26.3 7.8351 26.1657 7.70078 26 7.70078H7.00005C6.83436 7.70078 6.70005 7.8351 6.70005 8.00078V11.7008Z" fill="#E0E0E0"/>
<path fill-rule="evenodd" clip-rule="evenodd" d="M9 23.5C9 23.1838 9.01957 22.8721 9.05758 22.5661C9.51731 18.8647 12.6741 16 16.5 16C20.6421 16 24 19.3579 24 23.5C24 23.8162 23.9804 24.1279 23.9424 24.4339C23.4827 28.1353 20.3259 31 16.5 31C12.3579 31 9 27.6421 9 23.5ZM22.5988 23.62C22.5996 23.5801 22.6 23.5401 22.6 23.5C22.6 20.1311 19.8689 17.4 16.5 17.4C13.7463 17.4 11.4188 19.2246 10.6605 21.7308C11.0738 21.5789 11.5211 21.4589 11.9935 21.3905C13.5261 21.1688 15.2996 21.4964 16.9651 22.9768C18.2996 24.1631 19.6511 24.391 20.806 24.2239C21.48 24.1263 22.0946 23.8921 22.5988 23.62ZM10.4012 23.38C10.9054 23.1079 11.5199 22.8737 12.194 22.7761C13.3489 22.609 14.7004 22.8369 16.0349 24.0232C17.7004 25.5036 19.4739 25.8312 21.0065 25.6095C21.4789 25.5411 21.9262 25.4211 22.3395 25.2692C21.5812 27.7754 19.2537 29.6 16.5 29.6C13.1311 29.6 10.4 26.8689 10.4 23.5C10.4 23.4599 10.4004 23.4199 10.4012 23.38Z" fill="#E0E0E0"/>
<path fill-rule="evenodd" clip-rule="evenodd" d="M23.3 30.0008C23.3 28.6485 24.3945 27.5508 25.7484 27.5508H33.7506C35.104 27.5508 36.2 28.648 36.2 30.0008C36.2 31.3539 35.1031 32.4508 33.75 32.4508H25.75C24.397 32.4508 23.3 31.3539 23.3 30.0008ZM25.7484 28.9508C25.1694 28.9508 24.7 29.42 24.7 30.0008C24.7 30.5807 25.1701 31.0508 25.75 31.0508H33.75C34.3299 31.0508 34.8 30.5807 34.8 30.0008C34.8 29.4206 34.3302 28.9508 33.7506 28.9508H25.7484Z" fill="#E0E0E0"/>
<path fill-rule="evenodd" clip-rule="evenodd" d="M23.3 34.0008C23.3 32.6485 24.3945 31.5508 25.7484 31.5508H33.7506C35.104 31.5508 36.2 32.648 36.2 34.0008C36.2 35.3539 35.1031 36.4508 33.75 36.4508H25.75C24.397 36.4508 23.3 35.3539 23.3 34.0008ZM25.7484 32.9508C25.1694 32.9508 24.7 33.42 24.7 34.0008C24.7 34.5807 25.1701 35.0508 25.75 35.0508H33.75C34.3299 35.0508 34.8 34.5807 34.8 34.0008C34.8 33.4206 34.3302 32.9508 33.7506 32.9508H25.7484Z" fill="#E0E0E0"/>
<path fill-rule="evenodd" clip-rule="evenodd" d="M3.30005 6.00078C3.30005 5.0619 4.06116 4.30078 5.00005 4.30078H24C24.9389 4.30078 25.7001 5.0619 25.7001 6.00078V26.6008H24.3V11.1008H4.70005V31.0008C4.70005 31.1665 4.83436 31.3008 5.00005 31.3008H22.375V32.7008H5.00005C4.06117 32.7008 3.30005 31.9397 3.30005 31.0008V6.00078ZM4.70005 9.70078H24.3V6.00078C24.3 5.8351 24.1657 5.70078 24 5.70078H5.00005C4.83436 5.70078 4.70005 5.8351 4.70005 6.00078V9.70078Z" fill="#4F4F4F"/>
<path fill-rule="evenodd" clip-rule="evenodd" d="M7 21.5C7 21.1838 7.01957 20.8721 7.05758 20.5661C7.51731 16.8647 10.6741 14 14.5 14C18.6421 14 22 17.3579 22 21.5C22 21.8162 21.9804 22.1279 21.9424 22.4339C21.4827 26.1353 18.3259 29 14.5 29C10.3579 29 7 25.6421 7 21.5ZM20.5988 21.62C20.5996 21.5801 20.6 21.5401 20.6 21.5C20.6 18.1311 17.8689 15.4 14.5 15.4C11.7463 15.4 9.41879 17.2246 8.66051 19.7308C9.07384 19.5789 9.52113 19.4589 9.9935 19.3905C11.5261 19.1688 13.2996 19.4964 14.9651 20.9768C16.2996 22.1631 17.6511 22.391 18.806 22.2239C19.48 22.1263 20.0946 21.8921 20.5988 21.62ZM8.40116 21.38C8.90537 21.1079 9.51995 20.8737 10.194 20.7761C11.3489 20.609 12.7004 20.8369 14.0349 22.0232C15.7004 23.5036 17.4739 23.8312 19.0065 23.6095C19.4789 23.5411 19.9262 23.4211 20.3395 23.2692C19.5812 25.7754 17.2537 27.6 14.5 27.6C11.1311 27.6 8.4 24.8689 8.4 21.5C8.4 21.4599 8.40039 21.4199 8.40116 21.38Z" fill="#4F4F4F"/>
<path fill-rule="evenodd" clip-rule="evenodd" d="M21.3 28.0008C21.3 26.6485 22.3945 25.5508 23.7484 25.5508H31.7506C33.104 25.5508 34.2 26.648 34.2 28.0008C34.2 29.3539 33.1031 30.4508 31.75 30.4508H23.75C22.397 30.4508 21.3 29.3539 21.3 28.0008ZM23.7484 26.9508C23.1694 26.9508 22.7 27.42 22.7 28.0008C22.7 28.5807 23.1701 29.0508 23.75 29.0508H31.75C32.3299 29.0508 32.8 28.5807 32.8 28.0008C32.8 27.4206 32.3302 26.9508 31.7506 26.9508H23.7484Z" fill="#4F4F4F"/>
<path fill-rule="evenodd" clip-rule="evenodd" d="M21.3 32.0008C21.3 30.6485 22.3945 29.5508 23.7484 29.5508H31.7506C33.104 29.5508 34.2 30.648 34.2 32.0008C34.2 33.3539 33.1031 34.4508 31.75 34.4508H23.75C22.397 34.4508 21.3 33.3539 21.3 32.0008ZM23.7484 30.9508C23.1694 30.9508 22.7 31.42 22.7 32.0008C22.7 32.5807 23.1701 33.0508 23.75 33.0508H31.75C32.3299 33.0508 32.8 32.5807 32.8 32.0008C32.8 31.4206 32.3302 30.9508 31.7506 30.9508H23.7484Z" fill="#4F4F4F"/>
</svg>
