<svg width="40" height="40" viewBox="0 0 40 40" fill="none" xmlns="http://www.w3.org/2000/svg">
<path d="M21.4998 4.83398V38.1673M21.4998 4.83398C21.4998 4.83398 17.5811 7.41287 14.8332 8.58399C12.3239 9.65338 8.1665 10.6673 8.1665 10.6673V20.6673C8.1665 26.9173 12.3332 33.584 21.4998 38.1673M21.4998 4.83398C21.4998 4.83398 25.4185 7.41287 28.1665 8.58399C30.6758 9.65338 34.8332 10.6673 34.8332 10.6673V20.6673C34.8332 26.9173 30.6665 33.584 21.4998 38.1673" stroke="#E0E0E0" stroke-width="1.4"/>
<path d="M18.4998 1.83398V35.1673M18.4998 1.83398C18.4998 1.83398 14.5811 4.41287 11.8332 5.58399C9.32388 6.65338 5.1665 7.66732 5.1665 7.66732V17.6673C5.1665 23.9173 9.33317 30.584 18.4998 35.1673M18.4998 1.83398C18.4998 1.83398 22.4185 4.41287 25.1665 5.58399C27.6758 6.65338 31.8332 7.66732 31.8332 7.66732V17.6673C31.8332 23.9173 27.6665 30.584 18.4998 35.1673" stroke="#4F4F4F" stroke-width="1.6"/>
</svg>
