<svg width="40" height="40" viewBox="0 0 40 40" fill="none" xmlns="http://www.w3.org/2000/svg">
<path fill-rule="evenodd" clip-rule="evenodd" d="M21.9069 26.7401C20.8323 26.7401 19.7681 26.9518 18.7752 27.3631C17.7824 27.7743 16.8802 28.3771 16.1203 29.137L14.8691 27.8859C15.7934 26.9616 16.8906 26.2285 18.0981 25.7283C19.3057 25.2281 20.5999 24.9707 21.9069 24.9707C23.214 24.9707 24.5082 25.2281 25.7158 25.7283C26.9233 26.2285 28.0205 26.9616 28.9447 27.8859L27.6936 29.137C26.9337 28.3771 26.0315 27.7743 25.0387 27.3631C24.0458 26.9518 22.9816 26.7401 21.9069 26.7401Z" fill="#E0E0E0"/>
<path fill-rule="evenodd" clip-rule="evenodd" d="M21.9065 33.3749C21.7032 33.3749 21.5018 33.4149 21.314 33.4927C21.1262 33.5705 20.9555 33.6846 20.8117 33.8284L19.5605 32.5772C19.8686 32.2691 20.2344 32.0247 20.6369 31.858C21.0394 31.6913 21.4708 31.6055 21.9065 31.6055C22.3422 31.6055 22.7736 31.6913 23.1761 31.858C23.5786 32.0247 23.9443 32.2691 24.2524 32.5772L23.0013 33.8284C22.8575 33.6846 22.6868 33.5705 22.499 33.4927C22.3111 33.4149 22.1098 33.3749 21.9065 33.3749Z" fill="#E0E0E0"/>
<path fill-rule="evenodd" clip-rule="evenodd" d="M21.9067 18.9979C19.8154 18.9979 17.7446 19.4098 15.8125 20.2101C13.8805 21.0104 12.1249 22.1834 10.6462 23.6622L9.39502 22.411C11.0381 20.768 12.9887 19.4646 15.1354 18.5754C17.2822 17.6862 19.583 17.2285 21.9067 17.2285C24.2303 17.2285 26.5312 17.6862 28.6779 18.5754C30.8247 19.4646 32.7753 20.768 34.4183 22.411L33.1672 23.6622C31.6884 22.1834 29.9329 21.0104 28.0008 20.2101C26.0687 19.4098 23.9979 18.9979 21.9067 18.9979Z" fill="#E0E0E0"/>
<path fill-rule="evenodd" clip-rule="evenodd" d="M21.7601 11.2613C18.6698 11.2069 15.5999 11.773 12.7322 12.9259C9.86449 14.0788 7.25714 15.7952 5.06441 17.9735L3.81738 16.7182C6.17797 14.3731 8.98493 12.5253 12.0722 11.2842C15.1594 10.043 18.4643 9.43363 21.7912 9.49213C25.1181 9.55063 28.3995 10.2758 31.4412 11.6248C34.4829 12.9737 37.2231 14.919 39.4998 17.3456L38.2094 18.5563C36.0947 16.3023 33.5493 14.4953 30.7238 13.2422C27.8984 11.9892 24.8504 11.3156 21.7601 11.2613Z" fill="#E0E0E0"/>
<path fill-rule="evenodd" clip-rule="evenodd" d="M18.5893 23.4218C17.5146 23.4218 16.4505 23.6334 15.4576 24.0447C14.4647 24.456 13.5626 25.0588 12.8027 25.8187L11.5515 24.5675C12.4757 23.6433 13.5729 22.9102 14.7805 22.41C15.988 21.9098 17.2823 21.6523 18.5893 21.6523C19.8964 21.6523 21.1906 21.9098 22.3982 22.41C23.6057 22.9101 24.7029 23.6433 25.6271 24.5675L24.376 25.8187C23.616 25.0587 22.7139 24.456 21.721 24.0447C20.7282 23.6334 19.664 23.4218 18.5893 23.4218Z" fill="#4F4F4F"/>
<path fill-rule="evenodd" clip-rule="evenodd" d="M18.5891 30.0565C18.3858 30.0565 18.1845 30.0966 17.9966 30.1744C17.8088 30.2522 17.6381 30.3662 17.4943 30.51L16.2432 29.2588C16.5512 28.9508 16.917 28.7064 17.3195 28.5397C17.722 28.3729 18.1534 28.2871 18.5891 28.2871C19.0248 28.2871 19.4562 28.3729 19.8587 28.5396C20.2612 28.7064 20.627 28.9508 20.935 29.2588L19.6839 30.51C19.5401 30.3662 19.3694 30.2522 19.1816 30.1744C18.9937 30.0966 18.7924 30.0565 18.5891 30.0565Z" fill="#4F4F4F"/>
<path fill-rule="evenodd" clip-rule="evenodd" d="M18.5893 15.6815C16.498 15.6815 14.4272 16.0934 12.4952 16.8937C10.5631 17.694 8.80755 18.867 7.3288 20.3458L6.07764 19.0946C7.72069 17.4516 9.67128 16.1482 11.818 15.259C13.9648 14.3698 16.2657 13.9121 18.5893 13.9121C20.9129 13.9121 23.2138 14.3698 25.3606 15.259C27.5073 16.1482 29.4579 17.4516 31.1009 19.0946L29.8498 20.3458C28.371 18.867 26.6155 17.694 24.6834 16.8937C22.7513 16.0934 20.6806 15.6815 18.5893 15.6815Z" fill="#4F4F4F"/>
<path fill-rule="evenodd" clip-rule="evenodd" d="M18.4427 7.94291C15.3524 7.88857 12.2825 8.4546 9.41483 9.60751C6.54711 10.7604 3.93976 12.4768 1.74703 14.6551L0.5 13.3998C2.86059 11.0548 5.66755 9.20698 8.75481 7.96581C11.8421 6.72463 15.1469 6.11527 18.4738 6.17377C21.8007 6.23227 25.0821 6.95745 28.1238 8.3064C31.1655 9.65535 33.9058 11.6007 36.1824 14.0273L34.8921 15.2379C32.7773 12.9839 30.2319 11.1769 27.4065 9.92389C24.581 8.67086 21.533 7.99725 18.4427 7.94291Z" fill="#4F4F4F"/>
</svg>
