<svg width="40" height="40" viewBox="0 0 40 40" fill="none" xmlns="http://www.w3.org/2000/svg">
<g clip-path="url(#clip0_265_9493)">
<path d="M27.9136 19.9483L29.8928 17.9692C31.5892 19.6656 34.982 19.1001 36.9611 17.121C37.5266 16.5555 38.6575 14.9722 38.6575 13.1627L37.8093 12.3145L35.5475 14.5764L32.7201 15.1418L29.8928 12.3145L30.4582 9.48712L32.7201 7.22524L31.8719 6.37703C30.0624 6.37703 28.4791 7.50797 27.9136 8.07344C25.9345 10.0526 25.369 13.4454 27.0654 15.1418L25.0863 17.121" stroke="#E0E0E0" stroke-width="1.3"/>
<path d="M27.922 19.938L18.3005 29.56C19.9969 31.2564 19.4314 34.6492 17.4523 36.6284C16.8868 37.1938 15.3035 38.3248 13.494 38.3248L12.6458 37.4766L14.9076 35.2147L15.4731 32.3873L12.6458 29.56L9.81842 30.1255L7.55654 32.3873L6.70833 31.5391C6.70833 29.7296 7.83927 28.1463 8.40474 27.5809C10.3839 25.6017 13.7767 25.0362 15.4731 26.7326L25.0881 17.1177" stroke="#E0E0E0" stroke-width="1.3"/>
<path d="M26.3143 18.3487L28.2934 16.3696C29.9898 18.066 33.3826 17.5005 35.3618 15.5214C35.9272 14.9559 37.0582 13.3726 37.0582 11.5631L36.21 10.7149L33.9481 12.9767L31.1207 13.5422L28.2934 10.7149L28.8589 7.88751L31.1207 5.62563L30.2725 4.77742C28.463 4.77742 26.8797 5.90836 26.3143 6.47383C24.3351 8.45298 23.7696 11.8458 25.466 13.5422L23.4869 15.5214" stroke="#4F4F4F" stroke-width="1.3"/>
<path d="M26.7152 17.9474L16.7011 27.9623C18.3975 29.6588 17.832 33.0516 15.8529 35.0307C15.2874 35.5962 13.7041 36.7271 11.8946 36.7271L11.0464 35.8789L13.3083 33.617L13.8738 30.7897L11.0464 27.9623L8.21905 28.5278L5.95717 30.7897L5.10897 29.9415C5.10897 28.132 6.23991 26.5487 6.80538 25.9832C8.78452 24.0041 12.1773 23.4386 13.8738 25.135L23.5129 15.4962" stroke="#4F4F4F" stroke-width="1.3"/>
</g>
<defs>
<clipPath id="clip0_265_9493">
<rect width="36.6667" height="36.6667" fill="white" transform="translate(1.66675 1.66602)"/>
</clipPath>
</defs>
</svg>
