<svg width="24" height="24" viewBox="0 0 24 24" fill="none" xmlns="http://www.w3.org/2000/svg">
<path d="M11.2451 9.24506L9.14142 7.14142C9.06332 7.06332 8.93668 7.06332 8.85858 7.14142L7.40901 8.59099C7.14538 8.85462 6.88175 9.11825 7.13929 9.90304C7.14224 9.91204 7.14547 9.92007 7.14973 9.92852C7.256 10.1395 8.7817 13.1457 10.0607 14.4246C11.3865 15.7504 13.5962 16.8995 14.5685 17.3414C15.364 17.6066 15.6291 17.3414 15.8943 17.0763L17.3439 15.6267C17.422 15.5486 17.422 15.422 17.3439 15.3439L15.2402 13.2402C15.1621 13.1621 15.0355 13.1621 14.9574 13.2402L13.8687 14.3289C13.8109 14.3867 13.7237 14.4036 13.6486 14.3713C13.0407 14.1098 12.2306 13.7418 11.487 12.9982C10.7435 12.2547 10.3754 11.4446 10.114 10.8367C10.0817 10.7616 10.0986 10.6744 10.1564 10.6166L11.2451 9.52791C11.3232 9.4498 11.3232 9.32317 11.2451 9.24506Z" stroke="#E0E0E0" stroke-linecap="round" stroke-linejoin="round"/>
</svg>
