<svg width="386" height="262" viewBox="0 0 386 262" fill="none" xmlns="http://www.w3.org/2000/svg">
<rect width="3.99998" height="346" transform="matrix(4.37114e-08 -1 -1 -4.37114e-08 386 150)" fill="url(#paint0_linear_2346_68473)"/>
<rect width="4" height="76" transform="matrix(1 0 0 -1 0 262)" fill="url(#paint1_linear_2346_68473)"/>
<path d="M-1.74846e-06 186C-1.51885e-06 180.747 1.03463 175.546 3.04482 170.693C5.05501 165.84 8.00139 161.43 11.7157 157.716C15.4301 154.001 19.8396 151.055 24.6927 149.045C29.5457 147.035 34.7471 146 40 146L40 149.984C35.2702 149.984 30.5868 150.915 26.2171 152.725C21.8474 154.535 17.8769 157.188 14.5325 160.532C11.188 163.877 8.53509 167.847 6.7251 172.217C4.9151 176.587 3.9835 181.27 3.9835 186L-1.74846e-06 186Z" fill="#4F4F4F"/>
<g clip-path="url(#clip0_2346_68473)">
<path opacity="0.15" d="M214 125.4L212.009 125.584L212.177 127.4H214V125.4ZM211 93L209.586 91.5858L208.922 92.2496L209.009 93.1844L211 93ZM212 92L211.958 90.0004L211.154 90.0172L210.586 90.5858L212 92ZM241.4 84L240.22 82.3852L240.212 82.3907L240.205 82.3962L241.4 84ZM243.8 45L242.423 46.45L242.432 46.4592L242.442 46.4682L243.8 45ZM186.2 56.2L184.814 57.6422L186.337 59.105L187.715 57.5056L186.2 56.2ZM176 46.4L174.459 45.1249L173.275 46.5556L174.614 47.8422L176 46.4ZM255.4 34.4L256.741 32.9158V32.9158L255.4 34.4ZM256.2 91.2L257.506 92.7148L257.513 92.7084L257.521 92.7019L256.2 91.2ZM226.2 103.8L225.92 101.82L224.354 102.041L224.209 103.616L226.2 103.8ZM224.2 125.4V127.4H226.023L226.191 125.584L224.2 125.4ZM209.8 165H207.8V167H209.8V165ZM209.8 144V142H207.8V144H209.8ZM228.2 144H230.2V142H228.2V144ZM228.2 165V167H230.2V165H228.2ZM215.991 125.216L212.991 92.8156L209.009 93.1844L212.009 125.584L215.991 125.216ZM212.414 94.4142L213.414 93.4142L210.586 90.5858L209.586 91.5858L212.414 94.4142ZM212.042 93.9996C225.058 93.7284 235.33 91.0167 242.595 85.6038L240.205 82.3962C233.87 87.1166 224.542 89.7383 211.958 90.0004L212.042 93.9996ZM242.58 85.6148C250.034 80.1674 253.8 72.6979 253.8 63.4H249.8C249.8 71.4354 246.632 77.6992 240.22 82.3852L242.58 85.6148ZM253.8 63.4C253.8 55.5151 250.905 48.8477 245.158 43.5318L242.442 46.4682C247.362 51.019 249.8 56.6182 249.8 63.4H253.8ZM245.178 43.55C239.402 38.0629 231.806 35.4 222.6 35.4V39.4C230.994 39.4 237.532 41.8038 242.423 46.45L245.178 43.55ZM222.6 35.4C208.421 35.4 195.77 42.0299 184.685 54.8944L187.715 57.5056C198.23 45.3034 209.846 39.4 222.6 39.4V35.4ZM187.586 54.7578L177.386 44.9578L174.614 47.8422L184.814 57.6422L187.586 54.7578ZM177.541 47.6751C189.997 32.624 205.117 25.2 223 25.2V21.2C203.816 21.2 187.603 29.2426 174.459 45.1249L177.541 47.6751ZM223 25.2C235.941 25.2 246.23 28.8126 254.059 35.8842L256.741 32.9158C248.037 25.0541 236.726 21.2 223 21.2V25.2ZM254.059 35.8842C261.882 42.9494 265.8 51.9983 265.8 63.2H269.8C269.8 50.935 265.452 40.7839 256.741 32.9158L254.059 35.8842ZM265.8 63.2C265.8 74.5886 262.113 83.3374 254.879 89.6981L257.521 92.7019C265.754 85.4626 269.8 75.5447 269.8 63.2H265.8ZM254.894 89.6852C247.508 96.0527 237.889 100.128 225.92 101.82L226.48 105.78C239.044 104.005 249.426 99.6806 257.506 92.7148L254.894 89.6852ZM224.209 103.616L222.209 125.216L226.191 125.584L228.191 103.984L224.209 103.616ZM224.2 123.4H214V127.4H224.2V123.4ZM211.8 165V144H207.8V165H211.8ZM209.8 146H228.2V142H209.8V146ZM226.2 144V165H230.2V144H226.2ZM228.2 163H209.8V167H228.2V163Z" fill="url(#paint2_linear_2346_68473)"/>
<g opacity="0.45">
<path d="M195 117.4L192 85L193 84C205.8 83.7333 215.6 81.0667 222.4 76C229.333 70.9333 232.8 64.0667 232.8 55.4C232.8 48.0667 230.133 41.9333 224.8 37C219.467 31.9333 212.4 29.4 203.6 29.4C190.133 29.4 178 35.6667 167.2 48.2L157 38.4C169.8 22.9333 185.467 15.2 204 15.2C217.333 15.2 228.133 18.9333 236.4 26.4C244.667 33.8667 248.8 43.4667 248.8 55.2C248.8 67.0667 244.933 76.4 237.2 83.2C229.467 89.8667 219.467 94.0667 207.2 95.8L205.2 117.4H195ZM190.8 157V136H209.2V157H190.8Z" fill="#121212"/>
<path d="M195 117.4L193.009 117.584L193.177 119.4H195V117.4ZM192 85L190.586 83.5858L189.922 84.2496L190.009 85.1844L192 85ZM193 84L192.958 82.0004L192.154 82.0172L191.586 82.5858L193 84ZM222.4 76L221.22 74.3852L221.212 74.3907L221.205 74.3962L222.4 76ZM224.8 37L223.423 38.45L223.432 38.4592L223.442 38.4682L224.8 37ZM167.2 48.2L165.814 49.6422L167.337 51.105L168.715 49.5056L167.2 48.2ZM157 38.4L155.459 37.1249L154.275 38.5556L155.614 39.8422L157 38.4ZM236.4 26.4L237.741 24.9158V24.9158L236.4 26.4ZM237.2 83.2L238.506 84.7148L238.513 84.7084L238.521 84.7019L237.2 83.2ZM207.2 95.8L206.92 93.8197L205.354 94.0409L205.209 95.6156L207.2 95.8ZM205.2 117.4V119.4H207.023L207.191 117.584L205.2 117.4ZM190.8 157H188.8V159H190.8V157ZM190.8 136V134H188.8V136H190.8ZM209.2 136H211.2V134H209.2V136ZM209.2 157V159H211.2V157H209.2ZM196.991 117.216L193.991 84.8156L190.009 85.1844L193.009 117.584L196.991 117.216ZM193.414 86.4142L194.414 85.4142L191.586 82.5858L190.586 83.5858L193.414 86.4142ZM193.042 85.9996C206.058 85.7284 216.33 83.0167 223.595 77.6038L221.205 74.3962C214.87 79.1166 205.542 81.7383 192.958 82.0004L193.042 85.9996ZM223.58 77.6148C231.034 72.1674 234.8 64.6979 234.8 55.4H230.8C230.8 63.4354 227.632 69.6992 221.22 74.3852L223.58 77.6148ZM234.8 55.4C234.8 47.5151 231.905 40.8477 226.158 35.5318L223.442 38.4682C228.362 43.019 230.8 48.6182 230.8 55.4H234.8ZM226.178 35.55C220.402 30.0629 212.806 27.4 203.6 27.4V31.4C211.994 31.4 218.532 33.8038 223.423 38.45L226.178 35.55ZM203.6 27.4C189.421 27.4 176.77 34.0299 165.685 46.8944L168.715 49.5056C179.23 37.3034 190.846 31.4 203.6 31.4V27.4ZM168.586 46.7578L158.386 36.9578L155.614 39.8422L165.814 49.6422L168.586 46.7578ZM158.541 39.6751C170.997 24.624 186.117 17.2 204 17.2V13.2C184.816 13.2 168.603 21.2426 155.459 37.1249L158.541 39.6751ZM204 17.2C216.941 17.2 227.23 20.8126 235.059 27.8842L237.741 24.9158C229.037 17.0541 217.726 13.2 204 13.2V17.2ZM235.059 27.8842C242.882 34.9494 246.8 43.9983 246.8 55.2H250.8C250.8 42.935 246.452 32.7839 237.741 24.9158L235.059 27.8842ZM246.8 55.2C246.8 66.5886 243.113 75.3374 235.879 81.6981L238.521 84.7019C246.754 77.4626 250.8 67.5447 250.8 55.2H246.8ZM235.894 81.6852C228.508 88.0527 218.889 92.1284 206.92 93.8197L207.48 97.7803C220.044 96.0049 230.426 91.6806 238.506 84.7148L235.894 81.6852ZM205.209 95.6156L203.209 117.216L207.191 117.584L209.191 95.9844L205.209 95.6156ZM205.2 115.4H195V119.4H205.2V115.4ZM192.8 157V136H188.8V157H192.8ZM190.8 138H209.2V134H190.8V138ZM207.2 136V157H211.2V136H207.2ZM209.2 155H190.8V159H209.2V155Z" fill="url(#paint3_linear_2346_68473)"/>
</g>
</g>
<defs>
<linearGradient id="paint0_linear_2346_68473" x1="1.99999" y1="0" x2="1.99999" y2="346" gradientUnits="userSpaceOnUse">
<stop stop-color="white" stop-opacity="0"/>
<stop offset="0.0001" stop-color="#121212"/>
<stop offset="1" stop-color="#4F4F4F"/>
</linearGradient>
<linearGradient id="paint1_linear_2346_68473" x1="2" y1="0" x2="2" y2="76" gradientUnits="userSpaceOnUse">
<stop stop-color="white" stop-opacity="0"/>
<stop offset="0.0001" stop-color="#121212"/>
<stop offset="1" stop-color="#4F4F4F"/>
</linearGradient>
<linearGradient id="paint2_linear_2346_68473" x1="224" y1="8" x2="224" y2="208" gradientUnits="userSpaceOnUse">
<stop stop-color="#F2F2F2"/>
<stop offset="1" stop-color="#828282"/>
</linearGradient>
<linearGradient id="paint3_linear_2346_68473" x1="205" y1="0" x2="205" y2="200" gradientUnits="userSpaceOnUse">
<stop stop-color="#F2F2F2"/>
<stop offset="1" stop-color="#828282"/>
</linearGradient>
<clipPath id="clip0_2346_68473">
<rect width="170" height="146" fill="white" transform="translate(151)"/>
</clipPath>
</defs>
</svg>
